<svg width="3000" height="697" viewBox="0 0 3000 697" fill="none" xmlns="http://www.w3.org/2000/svg">
<g filter="url(#filter0_d_45_45)">
<circle cx="254" cy="250" r="250" fill="#F5F5F5"/>
<circle cx="610" cy="250" r="250" fill="#D3D4D6"/>
<circle cx="966" cy="250" r="250" fill="#FFD700"/>
<circle cx="1322" cy="250" r="250" fill="#007A7A"/>
<circle cx="1678" cy="250" r="250" fill="#3AC2D8"/>
<circle cx="2034" cy="250" r="250" fill="#1C8CD0"/>
<circle cx="2390" cy="250" r="250" fill="#001F3F"/>
<circle cx="2746" cy="250" r="250" fill="#1E1E1E"/>
<path d="M184.971 636.775V641.89H168.746V653.165H181.396V658.28H168.746V675H162.476V636.775H184.971ZM215.807 640.295H197.382V651.24C198.152 650.213 199.288 649.352 200.792 648.655C202.332 647.958 203.963 647.61 205.687 647.61C208.767 647.61 211.26 648.27 213.167 649.59C215.11 650.91 216.485 652.578 217.292 654.595C218.135 656.612 218.557 658.738 218.557 660.975C218.557 663.688 218.025 666.108 216.962 668.235C215.935 670.325 214.377 671.975 212.287 673.185C210.233 674.395 207.703 675 204.697 675C200.7 675 197.492 674.01 195.072 672.03C192.652 670.05 191.203 667.428 190.727 664.165H196.832C197.235 665.888 198.133 667.263 199.527 668.29C200.92 669.28 202.662 669.775 204.752 669.775C207.355 669.775 209.298 668.987 210.582 667.41C211.902 665.833 212.562 663.743 212.562 661.14C212.562 658.5 211.902 656.483 210.582 655.09C209.262 653.66 207.318 652.945 204.752 652.945C202.955 652.945 201.433 653.403 200.187 654.32C198.977 655.2 198.097 656.41 197.547 657.95H191.607V634.795H215.807V640.295ZM248.404 636.775V641.89H232.179V653.165H244.829V658.28H232.179V675H225.909V636.775H248.404ZM279.239 640.295H260.814V651.24C261.584 650.213 262.721 649.352 264.224 648.655C265.764 647.958 267.396 647.61 269.119 647.61C272.199 647.61 274.693 648.27 276.599 649.59C278.543 650.91 279.918 652.578 280.724 654.595C281.568 656.612 281.989 658.738 281.989 660.975C281.989 663.688 281.458 666.108 280.394 668.235C279.368 670.325 277.809 671.975 275.719 673.185C273.666 674.395 271.136 675 268.129 675C264.133 675 260.924 674.01 258.504 672.03C256.084 670.05 254.636 667.428 254.159 664.165H260.264C260.668 665.888 261.566 667.263 262.959 668.29C264.353 669.28 266.094 669.775 268.184 669.775C270.788 669.775 272.731 668.987 274.014 667.41C275.334 665.833 275.994 663.743 275.994 661.14C275.994 658.5 275.334 656.483 274.014 655.09C272.694 653.66 270.751 652.945 268.184 652.945C266.388 652.945 264.866 653.403 263.619 654.32C262.409 655.2 261.529 656.41 260.979 657.95H255.039V634.795H279.239V640.295ZM311.836 636.775V641.89H295.611V653.165H308.261V658.28H295.611V675H289.341V636.775H311.836ZM342.672 640.295H324.247V651.24C325.017 650.213 326.154 649.352 327.657 648.655C329.197 647.958 330.829 647.61 332.552 647.61C335.632 647.61 338.125 648.27 340.032 649.59C341.975 650.91 343.35 652.578 344.157 654.595C345 656.612 345.422 658.738 345.422 660.975C345.422 663.688 344.89 666.108 343.827 668.235C342.8 670.325 341.242 671.975 339.152 673.185C337.099 674.395 334.569 675 331.562 675C327.565 675 324.357 674.01 321.937 672.03C319.517 670.05 318.069 667.428 317.592 664.165H323.697C324.1 665.888 324.999 667.263 326.392 668.29C327.785 669.28 329.527 669.775 331.617 669.775C334.22 669.775 336.164 668.987 337.447 667.41C338.767 665.833 339.427 663.743 339.427 661.14C339.427 658.5 338.767 656.483 337.447 655.09C336.127 653.66 334.184 652.945 331.617 652.945C329.82 652.945 328.299 653.403 327.052 654.32C325.842 655.2 324.962 656.41 324.412 657.95H318.472V634.795H342.672V640.295Z" fill="black"/>
<path d="M515.841 636.775C519.911 636.775 523.468 637.563 526.511 639.14C529.591 640.68 531.956 642.917 533.606 645.85C535.293 648.747 536.136 652.138 536.136 656.025C536.136 659.912 535.293 663.285 533.606 666.145C531.956 669.005 529.591 671.205 526.511 672.745C523.468 674.248 519.911 675 515.841 675H503.356V636.775H515.841ZM515.841 669.885C520.315 669.885 523.743 668.675 526.126 666.255C528.51 663.835 529.701 660.425 529.701 656.025C529.701 651.588 528.51 648.123 526.126 645.63C523.743 643.137 520.315 641.89 515.841 641.89H509.626V669.885H515.841ZM541.416 644.805C541.636 641.395 542.937 638.737 545.321 636.83C547.741 634.923 550.821 633.97 554.561 633.97C557.127 633.97 559.346 634.428 561.216 635.345C563.086 636.262 564.497 637.508 565.451 639.085C566.404 640.662 566.881 642.44 566.881 644.42C566.881 646.693 566.276 648.637 565.066 650.25C563.856 651.863 562.407 652.945 560.721 653.495V653.715C562.884 654.375 564.571 655.585 565.781 657.345C566.991 659.068 567.596 661.287 567.596 664C567.596 666.163 567.101 668.088 566.111 669.775C565.121 671.462 563.654 672.8 561.711 673.79C559.767 674.743 557.439 675.22 554.726 675.22C550.766 675.22 547.502 674.212 544.936 672.195C542.406 670.142 541.049 667.208 540.866 663.395H546.916C547.062 665.338 547.814 666.933 549.171 668.18C550.527 669.39 552.361 669.995 554.671 669.995C556.907 669.995 558.631 669.39 559.841 668.18C561.051 666.933 561.656 665.338 561.656 663.395C561.656 660.828 560.831 659.013 559.181 657.95C557.567 656.85 555.074 656.3 551.701 656.3H550.271V651.13H551.756C554.726 651.093 556.981 650.598 558.521 649.645C560.097 648.692 560.886 647.188 560.886 645.135C560.886 643.375 560.317 641.982 559.181 640.955C558.044 639.892 556.431 639.36 554.341 639.36C552.287 639.36 550.692 639.892 549.556 640.955C548.419 641.982 547.741 643.265 547.521 644.805H541.416ZM587.492 636.775C591.562 636.775 595.119 637.563 598.162 639.14C601.242 640.68 603.607 642.917 605.257 645.85C606.944 648.747 607.787 652.138 607.787 656.025C607.787 659.912 606.944 663.285 605.257 666.145C603.607 669.005 601.242 671.205 598.162 672.745C595.119 674.248 591.562 675 587.492 675H575.007V636.775H587.492ZM587.492 669.885C591.965 669.885 595.394 668.675 597.777 666.255C600.16 663.835 601.352 660.425 601.352 656.025C601.352 651.588 600.16 648.123 597.777 645.63C595.394 643.137 591.965 641.89 587.492 641.89H581.277V669.885H587.492ZM612.406 666.64V661.91L630.886 635.4H638.476V661.195H643.591V666.64H638.476V675H632.316V666.64H612.406ZM632.591 641.78L619.611 661.195H632.591V641.78ZM662.096 636.775C666.166 636.775 669.723 637.563 672.766 639.14C675.846 640.68 678.211 642.917 679.861 645.85C681.548 648.747 682.391 652.138 682.391 656.025C682.391 659.912 681.548 663.285 679.861 666.145C678.211 669.005 675.846 671.205 672.766 672.745C669.723 674.248 666.166 675 662.096 675H649.611V636.775H662.096ZM662.096 669.885C666.57 669.885 669.998 668.675 672.381 666.255C674.765 663.835 675.956 660.425 675.956 656.025C675.956 651.588 674.765 648.123 672.381 645.63C669.998 643.137 666.57 641.89 662.096 641.89H655.881V669.885H662.096ZM709.34 644.2C708.937 642.513 708.204 641.248 707.14 640.405C706.077 639.562 704.592 639.14 702.685 639.14C699.789 639.14 697.625 640.258 696.195 642.495C694.765 644.695 694.014 648.362 693.94 653.495C694.894 651.882 696.287 650.635 698.12 649.755C699.954 648.875 701.934 648.435 704.06 648.435C706.48 648.435 708.607 648.967 710.44 650.03C712.31 651.057 713.759 652.56 714.785 654.54C715.849 656.52 716.38 658.885 716.38 661.635C716.38 664.202 715.867 666.493 714.84 668.51C713.85 670.527 712.365 672.122 710.385 673.295C708.405 674.432 706.022 675 703.235 675C699.459 675 696.489 674.175 694.325 672.525C692.199 670.838 690.695 668.473 689.815 665.43C688.972 662.387 688.55 658.592 688.55 654.045C688.55 640.625 693.28 633.915 702.74 633.915C706.407 633.915 709.285 634.905 711.375 636.885C713.502 638.865 714.749 641.303 715.115 644.2H709.34ZM702.685 653.715C700.449 653.715 698.542 654.393 696.965 655.75C695.425 657.07 694.655 658.995 694.655 661.525C694.655 664.055 695.37 666.072 696.8 667.575C698.267 669.042 700.302 669.775 702.905 669.775C705.215 669.775 707.03 669.06 708.35 667.63C709.707 666.2 710.385 664.293 710.385 661.91C710.385 659.417 709.725 657.437 708.405 655.97C707.122 654.467 705.215 653.715 702.685 653.715Z" fill="black"/>
<path d="M893.695 636.775V641.89H877.47V653.165H890.12V658.28H877.47V675H871.2V636.775H893.695ZM922 636.775V641.89H905.775V653.165H918.425V658.28H905.775V675H899.505V636.775H922ZM940.296 636.775C944.366 636.775 947.923 637.563 950.966 639.14C954.046 640.68 956.411 642.917 958.061 645.85C959.748 648.747 960.591 652.138 960.591 656.025C960.591 659.912 959.748 663.285 958.061 666.145C956.411 669.005 954.046 671.205 950.966 672.745C947.923 674.248 944.366 675 940.296 675H927.811V636.775H940.296ZM940.296 669.885C944.769 669.885 948.198 668.675 950.581 666.255C952.964 663.835 954.156 660.425 954.156 656.025C954.156 651.588 952.964 648.123 950.581 645.63C948.198 643.137 944.769 641.89 940.296 641.89H934.081V669.885H940.296ZM991.39 639.745L976.1 675H969.775L985.23 640.405H964.88V635.07H991.39V639.745ZM996.757 654.43C996.757 648.087 997.82 643.137 999.947 639.58C1002.11 635.987 1005.81 634.19 1011.06 634.19C1016.3 634.19 1019.98 635.987 1022.11 639.58C1024.27 643.137 1025.36 648.087 1025.36 654.43C1025.36 660.847 1024.27 665.87 1022.11 669.5C1019.98 673.093 1016.3 674.89 1011.06 674.89C1005.81 674.89 1002.11 673.093 999.947 669.5C997.82 665.87 996.757 660.847 996.757 654.43ZM1019.2 654.43C1019.2 651.46 1018.99 648.948 1018.59 646.895C1018.22 644.842 1017.45 643.173 1016.28 641.89C1015.11 640.57 1013.37 639.91 1011.06 639.91C1008.75 639.91 1007 640.57 1005.83 641.89C1004.66 643.173 1003.87 644.842 1003.47 646.895C1003.1 648.948 1002.92 651.46 1002.92 654.43C1002.92 657.51 1003.1 660.095 1003.47 662.185C1003.83 664.275 1004.6 665.962 1005.78 667.245C1006.99 668.528 1008.75 669.17 1011.06 669.17C1013.37 669.17 1015.11 668.528 1016.28 667.245C1017.49 665.962 1018.28 664.275 1018.65 662.185C1019.01 660.095 1019.2 657.51 1019.2 654.43ZM1031.99 654.43C1031.99 648.087 1033.05 643.137 1035.18 639.58C1037.34 635.987 1041.05 634.19 1046.29 634.19C1051.53 634.19 1055.22 635.987 1057.35 639.58C1059.51 643.137 1060.59 648.087 1060.59 654.43C1060.59 660.847 1059.51 665.87 1057.35 669.5C1055.22 673.093 1051.53 674.89 1046.29 674.89C1041.05 674.89 1037.34 673.093 1035.18 669.5C1033.05 665.87 1031.99 660.847 1031.99 654.43ZM1054.43 654.43C1054.43 651.46 1054.23 648.948 1053.83 646.895C1053.46 644.842 1052.69 643.173 1051.52 641.89C1050.34 640.57 1048.6 639.91 1046.29 639.91C1043.98 639.91 1042.24 640.57 1041.07 641.89C1039.89 643.173 1039.1 644.842 1038.7 646.895C1038.33 648.948 1038.15 651.46 1038.15 654.43C1038.15 657.51 1038.33 660.095 1038.7 662.185C1039.07 664.275 1039.84 665.962 1041.01 667.245C1042.22 668.528 1043.98 669.17 1046.29 669.17C1048.6 669.17 1050.34 668.528 1051.52 667.245C1052.73 665.962 1053.51 664.275 1053.88 662.185C1054.25 660.095 1054.43 657.51 1054.43 654.43Z" fill="black"/>
<path d="M1220.44 654.43C1220.44 648.087 1221.5 643.137 1223.63 639.58C1225.79 635.987 1229.5 634.19 1234.74 634.19C1239.98 634.19 1243.67 635.987 1245.79 639.58C1247.96 643.137 1249.04 648.087 1249.04 654.43C1249.04 660.847 1247.96 665.87 1245.79 669.5C1243.67 673.093 1239.98 674.89 1234.74 674.89C1229.5 674.89 1225.79 673.093 1223.63 669.5C1221.5 665.87 1220.44 660.847 1220.44 654.43ZM1242.88 654.43C1242.88 651.46 1242.68 648.948 1242.27 646.895C1241.91 644.842 1241.14 643.173 1239.96 641.89C1238.79 640.57 1237.05 639.91 1234.74 639.91C1232.43 639.91 1230.69 640.57 1229.51 641.89C1228.34 643.173 1227.55 644.842 1227.15 646.895C1226.78 648.948 1226.6 651.46 1226.6 654.43C1226.6 657.51 1226.78 660.095 1227.15 662.185C1227.52 664.275 1228.29 665.962 1229.46 667.245C1230.67 668.528 1232.43 669.17 1234.74 669.17C1237.05 669.17 1238.79 668.528 1239.96 667.245C1241.17 665.962 1241.96 664.275 1242.33 662.185C1242.7 660.095 1242.88 657.51 1242.88 654.43ZM1255.67 654.43C1255.67 648.087 1256.74 643.137 1258.86 639.58C1261.03 635.987 1264.73 634.19 1269.97 634.19C1275.22 634.19 1278.9 635.987 1281.03 639.58C1283.19 643.137 1284.27 648.087 1284.27 654.43C1284.27 660.847 1283.19 665.87 1281.03 669.5C1278.9 673.093 1275.22 674.89 1269.97 674.89C1264.73 674.89 1261.03 673.093 1258.86 669.5C1256.74 665.87 1255.67 660.847 1255.67 654.43ZM1278.11 654.43C1278.11 651.46 1277.91 648.948 1277.51 646.895C1277.14 644.842 1276.37 643.173 1275.2 641.89C1274.03 640.57 1272.28 639.91 1269.97 639.91C1267.66 639.91 1265.92 640.57 1264.75 641.89C1263.58 643.173 1262.79 644.842 1262.38 646.895C1262.02 648.948 1261.83 651.46 1261.83 654.43C1261.83 657.51 1262.02 660.095 1262.38 662.185C1262.75 664.275 1263.52 665.962 1264.69 667.245C1265.9 668.528 1267.66 669.17 1269.97 669.17C1272.28 669.17 1274.03 668.528 1275.2 667.245C1276.41 665.962 1277.2 664.275 1277.56 662.185C1277.93 660.095 1278.11 657.51 1278.11 654.43ZM1316.32 639.745L1301.03 675H1294.7L1310.16 640.405H1289.81V635.07H1316.32V639.745ZM1345.55 667.19H1329.55L1326.8 675H1320.25L1333.95 636.72H1341.21L1354.9 675H1348.3L1345.55 667.19ZM1343.79 662.075L1337.58 644.31L1331.31 662.075H1343.79ZM1385.44 639.745L1370.15 675H1363.83L1379.28 640.405H1358.93V635.07H1385.44V639.745ZM1414.68 667.19H1398.68L1395.93 675H1389.38L1403.08 636.72H1410.34L1424.03 675H1417.43L1414.68 667.19ZM1412.92 662.075L1406.71 644.31L1400.44 662.075H1412.92Z" fill="black"/>
<path d="M1571.51 644.805C1571.73 641.395 1573.03 638.737 1575.42 636.83C1577.84 634.923 1580.92 633.97 1584.66 633.97C1587.22 633.97 1589.44 634.428 1591.31 635.345C1593.18 636.262 1594.59 637.508 1595.55 639.085C1596.5 640.662 1596.98 642.44 1596.98 644.42C1596.98 646.693 1596.37 648.637 1595.16 650.25C1593.95 651.863 1592.5 652.945 1590.82 653.495V653.715C1592.98 654.375 1594.67 655.585 1595.88 657.345C1597.09 659.068 1597.69 661.287 1597.69 664C1597.69 666.163 1597.2 668.088 1596.21 669.775C1595.22 671.462 1593.75 672.8 1591.81 673.79C1589.86 674.743 1587.54 675.22 1584.82 675.22C1580.86 675.22 1577.6 674.212 1575.03 672.195C1572.5 670.142 1571.15 667.208 1570.96 663.395H1577.01C1577.16 665.338 1577.91 666.933 1579.27 668.18C1580.62 669.39 1582.46 669.995 1584.77 669.995C1587 669.995 1588.73 669.39 1589.94 668.18C1591.15 666.933 1591.75 665.338 1591.75 663.395C1591.75 660.828 1590.93 659.013 1589.28 657.95C1587.66 656.85 1585.17 656.3 1581.8 656.3H1580.37V651.13H1581.85C1584.82 651.093 1587.08 650.598 1588.62 649.645C1590.19 648.692 1590.98 647.188 1590.98 645.135C1590.98 643.375 1590.41 641.982 1589.28 640.955C1588.14 639.892 1586.53 639.36 1584.44 639.36C1582.38 639.36 1580.79 639.892 1579.65 640.955C1578.52 641.982 1577.84 643.265 1577.62 644.805H1571.51ZM1628.15 667.19H1612.14L1609.39 675H1602.85L1616.54 636.72H1623.8L1637.5 675H1630.9L1628.15 667.19ZM1626.39 662.075L1620.17 644.31L1613.9 662.075H1626.39ZM1641.36 655.805C1641.36 652.065 1642.22 648.71 1643.95 645.74C1645.71 642.77 1648.07 640.46 1651.04 638.81C1654.05 637.123 1657.33 636.28 1660.89 636.28C1664.96 636.28 1668.57 637.288 1671.72 639.305C1674.91 641.285 1677.22 644.108 1678.65 647.775H1671.12C1670.13 645.758 1668.75 644.255 1666.99 643.265C1665.23 642.275 1663.2 641.78 1660.89 641.78C1658.36 641.78 1656.1 642.348 1654.12 643.485C1652.14 644.622 1650.58 646.253 1649.45 648.38C1648.35 650.507 1647.8 652.982 1647.8 655.805C1647.8 658.628 1648.35 661.103 1649.45 663.23C1650.58 665.357 1652.14 667.007 1654.12 668.18C1656.1 669.317 1658.36 669.885 1660.89 669.885C1663.2 669.885 1665.23 669.39 1666.99 668.4C1668.75 667.41 1670.13 665.907 1671.12 663.89H1678.65C1677.22 667.557 1674.91 670.38 1671.72 672.36C1668.57 674.34 1664.96 675.33 1660.89 675.33C1657.29 675.33 1654.01 674.505 1651.04 672.855C1648.07 671.168 1645.71 668.84 1643.95 665.87C1642.22 662.9 1641.36 659.545 1641.36 655.805ZM1688.63 666.475C1692.15 663.432 1694.92 660.938 1696.94 658.995C1698.99 657.015 1700.7 654.962 1702.05 652.835C1703.41 650.708 1704.09 648.582 1704.09 646.455C1704.09 644.255 1703.56 642.532 1702.49 641.285C1701.47 640.038 1699.83 639.415 1697.6 639.415C1695.43 639.415 1693.75 640.112 1692.54 641.505C1691.36 642.862 1690.74 644.695 1690.67 647.005H1684.62C1684.73 642.825 1685.97 639.635 1688.36 637.435C1690.78 635.198 1693.84 634.08 1697.54 634.08C1701.54 634.08 1704.66 635.18 1706.89 637.38C1709.17 639.58 1710.3 642.513 1710.3 646.18C1710.3 648.82 1709.62 651.368 1708.27 653.825C1706.95 656.245 1705.35 658.427 1703.48 660.37C1701.65 662.277 1699.3 664.495 1696.44 667.025L1693.97 669.225H1711.4V674.45H1684.67V669.885L1688.63 666.475ZM1730.22 636.775C1734.29 636.775 1737.85 637.563 1740.89 639.14C1743.97 640.68 1746.34 642.917 1747.99 645.85C1749.67 648.747 1750.52 652.138 1750.52 656.025C1750.52 659.912 1749.67 663.285 1747.99 666.145C1746.34 669.005 1743.97 671.205 1740.89 672.745C1737.85 674.248 1734.29 675 1730.22 675H1717.74V636.775H1730.22ZM1730.22 669.885C1734.69 669.885 1738.12 668.675 1740.51 666.255C1742.89 663.835 1744.08 660.425 1744.08 656.025C1744.08 651.588 1742.89 648.123 1740.51 645.63C1738.12 643.137 1734.69 641.89 1730.22 641.89H1724.01V669.885H1730.22ZM1762.67 654.045C1758.86 652.138 1756.95 649.132 1756.95 645.025C1756.95 643.045 1757.44 641.23 1758.43 639.58C1759.42 637.93 1760.91 636.628 1762.89 635.675C1764.87 634.685 1767.29 634.19 1770.15 634.19C1772.97 634.19 1775.37 634.685 1777.35 635.675C1779.37 636.628 1780.87 637.93 1781.86 639.58C1782.85 641.23 1783.35 643.045 1783.35 645.025C1783.35 647.078 1782.82 648.893 1781.75 650.47C1780.73 652.01 1779.35 653.202 1777.63 654.045C1779.72 654.815 1781.37 656.08 1782.58 657.84C1783.79 659.563 1784.39 661.598 1784.39 663.945C1784.39 666.328 1783.79 668.437 1782.58 670.27C1781.37 672.103 1779.68 673.515 1777.52 674.505C1775.36 675.495 1772.9 675.99 1770.15 675.99C1767.4 675.99 1764.94 675.495 1762.78 674.505C1760.65 673.515 1758.98 672.103 1757.77 670.27C1756.56 668.437 1755.96 666.328 1755.96 663.945C1755.96 661.562 1756.56 659.508 1757.77 657.785C1758.98 656.062 1760.62 654.815 1762.67 654.045ZM1777.35 645.795C1777.35 643.742 1776.71 642.165 1775.43 641.065C1774.15 639.965 1772.39 639.415 1770.15 639.415C1767.95 639.415 1766.21 639.965 1764.92 641.065C1763.64 642.165 1763 643.76 1763 645.85C1763 647.683 1763.66 649.187 1764.98 650.36C1766.34 651.497 1768.06 652.065 1770.15 652.065C1772.24 652.065 1773.96 651.478 1775.32 650.305C1776.68 649.132 1777.35 647.628 1777.35 645.795ZM1770.15 656.795C1767.73 656.795 1765.75 657.4 1764.21 658.61C1762.71 659.783 1761.95 661.488 1761.95 663.725C1761.95 665.815 1762.69 667.52 1764.15 668.84C1765.62 670.123 1767.62 670.765 1770.15 670.765C1772.64 670.765 1774.6 670.105 1776.03 668.785C1777.5 667.465 1778.23 665.778 1778.23 663.725C1778.23 661.525 1777.48 659.82 1775.98 658.61C1774.51 657.4 1772.57 656.795 1770.15 656.795Z" fill="black"/>
<path d="M1929.67 640.625V634.905H1941.11V675H1934.79V640.625H1929.67ZM1948.46 655.805C1948.46 652.065 1949.32 648.71 1951.04 645.74C1952.8 642.77 1955.17 640.46 1958.14 638.81C1961.15 637.123 1964.43 636.28 1967.98 636.28C1972.05 636.28 1975.67 637.288 1978.82 639.305C1982.01 641.285 1984.32 644.108 1985.75 647.775H1978.21C1977.22 645.758 1975.85 644.255 1974.09 643.265C1972.33 642.275 1970.29 641.78 1967.98 641.78C1965.45 641.78 1963.2 642.348 1961.22 643.485C1959.24 644.622 1957.68 646.253 1956.54 648.38C1955.44 650.507 1954.89 652.982 1954.89 655.805C1954.89 658.628 1955.44 661.103 1956.54 663.23C1957.68 665.357 1959.24 667.007 1961.22 668.18C1963.2 669.317 1965.45 669.885 1967.98 669.885C1970.29 669.885 1972.33 669.39 1974.09 668.4C1975.85 667.41 1977.22 665.907 1978.21 663.89H1985.75C1984.32 667.557 1982.01 670.38 1978.82 672.36C1975.67 674.34 1972.05 675.33 1967.98 675.33C1964.39 675.33 1961.11 674.505 1958.14 672.855C1955.17 671.168 1952.8 668.84 1951.04 665.87C1949.32 662.9 1948.46 659.545 1948.46 655.805ZM1999.03 654.045C1995.22 652.138 1993.31 649.132 1993.31 645.025C1993.31 643.045 1993.8 641.23 1994.79 639.58C1995.78 637.93 1997.27 636.628 1999.25 635.675C2001.23 634.685 2003.65 634.19 2006.51 634.19C2009.33 634.19 2011.73 634.685 2013.71 635.675C2015.73 636.628 2017.23 637.93 2018.22 639.58C2019.21 641.23 2019.71 643.045 2019.71 645.025C2019.71 647.078 2019.18 648.893 2018.11 650.47C2017.09 652.01 2015.71 653.202 2013.99 654.045C2016.08 654.815 2017.73 656.08 2018.94 657.84C2020.15 659.563 2020.75 661.598 2020.75 663.945C2020.75 666.328 2020.15 668.437 2018.94 670.27C2017.73 672.103 2016.04 673.515 2013.88 674.505C2011.72 675.495 2009.26 675.99 2006.51 675.99C2003.76 675.99 2001.3 675.495 1999.14 674.505C1997.01 673.515 1995.34 672.103 1994.13 670.27C1992.92 668.437 1992.32 666.328 1992.32 663.945C1992.32 661.562 1992.92 659.508 1994.13 657.785C1995.34 656.062 1996.98 654.815 1999.03 654.045ZM2013.71 645.795C2013.71 643.742 2013.07 642.165 2011.79 641.065C2010.51 639.965 2008.75 639.415 2006.51 639.415C2004.31 639.415 2002.57 639.965 2001.28 641.065C2000 642.165 1999.36 643.76 1999.36 645.85C1999.36 647.683 2000.02 649.187 2001.34 650.36C2002.7 651.497 2004.42 652.065 2006.51 652.065C2008.6 652.065 2010.32 651.478 2011.68 650.305C2013.04 649.132 2013.71 647.628 2013.71 645.795ZM2006.51 656.795C2004.09 656.795 2002.11 657.4 2000.57 658.61C1999.07 659.783 1998.31 661.488 1998.31 663.725C1998.31 665.815 1999.05 667.52 2000.51 668.84C2001.98 670.123 2003.98 670.765 2006.51 670.765C2009 670.765 2010.96 670.105 2012.39 668.785C2013.86 667.465 2014.59 665.778 2014.59 663.725C2014.59 661.525 2013.84 659.82 2012.34 658.61C2010.87 657.4 2008.93 656.795 2006.51 656.795ZM2026.07 655.805C2026.07 652.065 2026.93 648.71 2028.66 645.74C2030.42 642.77 2032.78 640.46 2035.75 638.81C2038.76 637.123 2042.04 636.28 2045.6 636.28C2049.67 636.28 2053.28 637.288 2056.43 639.305C2059.62 641.285 2061.93 644.108 2063.36 647.775H2055.83C2054.84 645.758 2053.46 644.255 2051.7 643.265C2049.94 642.275 2047.91 641.78 2045.6 641.78C2043.07 641.78 2040.81 642.348 2038.83 643.485C2036.85 644.622 2035.29 646.253 2034.16 648.38C2033.06 650.507 2032.51 652.982 2032.51 655.805C2032.51 658.628 2033.06 661.103 2034.16 663.23C2035.29 665.357 2036.85 667.007 2038.83 668.18C2040.81 669.317 2043.07 669.885 2045.6 669.885C2047.91 669.885 2049.94 669.39 2051.7 668.4C2053.46 667.41 2054.84 665.907 2055.83 663.89H2063.36C2061.93 667.557 2059.62 670.38 2056.43 672.36C2053.28 674.34 2049.67 675.33 2045.6 675.33C2042 675.33 2038.72 674.505 2035.75 672.855C2032.78 671.168 2030.42 668.84 2028.66 665.87C2026.93 662.9 2026.07 659.545 2026.07 655.805ZM2083.19 636.775C2087.26 636.775 2090.81 637.563 2093.86 639.14C2096.94 640.68 2099.3 642.917 2100.95 645.85C2102.64 648.747 2103.48 652.138 2103.48 656.025C2103.48 659.912 2102.64 663.285 2100.95 666.145C2099.3 669.005 2096.94 671.205 2093.86 672.745C2090.81 674.248 2087.26 675 2083.19 675H2070.7V636.775H2083.19ZM2083.19 669.885C2087.66 669.885 2091.09 668.675 2093.47 666.255C2095.85 663.835 2097.05 660.425 2097.05 656.025C2097.05 651.588 2095.85 648.123 2093.47 645.63C2091.09 643.137 2087.66 641.89 2083.19 641.89H2076.97V669.885H2083.19ZM2108.87 654.43C2108.87 648.087 2109.93 643.137 2112.06 639.58C2114.22 635.987 2117.93 634.19 2123.17 634.19C2128.41 634.19 2132.1 635.987 2134.22 639.58C2136.39 643.137 2137.47 648.087 2137.47 654.43C2137.47 660.847 2136.39 665.87 2134.22 669.5C2132.1 673.093 2128.41 674.89 2123.17 674.89C2117.93 674.89 2114.22 673.093 2112.06 669.5C2109.93 665.87 2108.87 660.847 2108.87 654.43ZM2131.31 654.43C2131.31 651.46 2131.11 648.948 2130.7 646.895C2130.34 644.842 2129.57 643.173 2128.39 641.89C2127.22 640.57 2125.48 639.91 2123.17 639.91C2120.86 639.91 2119.12 640.57 2117.94 641.89C2116.77 643.173 2115.98 644.842 2115.58 646.895C2115.21 648.948 2115.03 651.46 2115.03 654.43C2115.03 657.51 2115.21 660.095 2115.58 662.185C2115.95 664.275 2116.72 665.962 2117.89 667.245C2119.1 668.528 2120.86 669.17 2123.17 669.17C2125.48 669.17 2127.22 668.528 2128.39 667.245C2129.6 665.962 2130.39 664.275 2130.76 662.185C2131.13 660.095 2131.31 657.51 2131.31 654.43Z" fill="black"/>
<path d="M2303.32 654.43C2303.32 648.087 2304.38 643.137 2306.51 639.58C2308.67 635.987 2312.37 634.19 2317.62 634.19C2322.86 634.19 2326.55 635.987 2328.67 639.58C2330.84 643.137 2331.92 648.087 2331.92 654.43C2331.92 660.847 2330.84 665.87 2328.67 669.5C2326.55 673.093 2322.86 674.89 2317.62 674.89C2312.37 674.89 2308.67 673.093 2306.51 669.5C2304.38 665.87 2303.32 660.847 2303.32 654.43ZM2325.76 654.43C2325.76 651.46 2325.56 648.948 2325.15 646.895C2324.79 644.842 2324.02 643.173 2322.84 641.89C2321.67 640.57 2319.93 639.91 2317.62 639.91C2315.31 639.91 2313.57 640.57 2312.39 641.89C2311.22 643.173 2310.43 644.842 2310.03 646.895C2309.66 648.948 2309.48 651.46 2309.48 654.43C2309.48 657.51 2309.66 660.095 2310.03 662.185C2310.39 664.275 2311.16 665.962 2312.34 667.245C2313.55 668.528 2315.31 669.17 2317.62 669.17C2319.93 669.17 2321.67 668.528 2322.84 667.245C2324.05 665.962 2324.84 664.275 2325.21 662.185C2325.57 660.095 2325.76 657.51 2325.76 654.43ZM2338.55 654.43C2338.55 648.087 2339.62 643.137 2341.74 639.58C2343.91 635.987 2347.61 634.19 2352.85 634.19C2358.1 634.19 2361.78 635.987 2363.91 639.58C2366.07 643.137 2367.15 648.087 2367.15 654.43C2367.15 660.847 2366.07 665.87 2363.91 669.5C2361.78 673.093 2358.1 674.89 2352.85 674.89C2347.61 674.89 2343.91 673.093 2341.74 669.5C2339.62 665.87 2338.55 660.847 2338.55 654.43ZM2360.99 654.43C2360.99 651.46 2360.79 648.948 2360.39 646.895C2360.02 644.842 2359.25 643.173 2358.08 641.89C2356.9 640.57 2355.16 639.91 2352.85 639.91C2350.54 639.91 2348.8 640.57 2347.63 641.89C2346.45 643.173 2345.67 644.842 2345.26 646.895C2344.9 648.948 2344.71 651.46 2344.71 654.43C2344.71 657.51 2344.9 660.095 2345.26 662.185C2345.63 664.275 2346.4 665.962 2347.57 667.245C2348.78 668.528 2350.54 669.17 2352.85 669.17C2355.16 669.17 2356.9 668.528 2358.08 667.245C2359.29 665.962 2360.08 664.275 2360.44 662.185C2360.81 660.095 2360.99 657.51 2360.99 654.43ZM2372.96 640.625V634.905H2384.4V675H2378.08V640.625H2372.96ZM2416.33 636.775V641.89H2400.11V653.165H2412.76V658.28H2400.11V675H2393.84V636.775H2416.33ZM2421.21 644.805C2421.43 641.395 2422.73 638.737 2425.12 636.83C2427.54 634.923 2430.62 633.97 2434.36 633.97C2436.92 633.97 2439.14 634.428 2441.01 635.345C2442.88 636.262 2444.29 637.508 2445.25 639.085C2446.2 640.662 2446.68 642.44 2446.68 644.42C2446.68 646.693 2446.07 648.637 2444.86 650.25C2443.65 651.863 2442.2 652.945 2440.52 653.495V653.715C2442.68 654.375 2444.37 655.585 2445.58 657.345C2446.79 659.068 2447.39 661.287 2447.39 664C2447.39 666.163 2446.9 668.088 2445.91 669.775C2444.92 671.462 2443.45 672.8 2441.51 673.79C2439.56 674.743 2437.23 675.22 2434.52 675.22C2430.56 675.22 2427.3 674.212 2424.73 672.195C2422.2 670.142 2420.84 667.208 2420.66 663.395H2426.71C2426.86 665.338 2427.61 666.933 2428.97 668.18C2430.32 669.39 2432.16 669.995 2434.47 669.995C2436.7 669.995 2438.43 669.39 2439.64 668.18C2440.85 666.933 2441.45 665.338 2441.45 663.395C2441.45 660.828 2440.63 659.013 2438.98 657.95C2437.36 656.85 2434.87 656.3 2431.5 656.3H2430.07V651.13H2431.55C2434.52 651.093 2436.78 650.598 2438.32 649.645C2439.89 648.692 2440.68 647.188 2440.68 645.135C2440.68 643.375 2440.11 641.982 2438.98 640.955C2437.84 639.892 2436.23 639.36 2434.14 639.36C2432.08 639.36 2430.49 639.892 2429.35 640.955C2428.21 641.982 2427.54 643.265 2427.32 644.805H2421.21ZM2477.3 636.775V641.89H2461.07V653.165H2473.72V658.28H2461.07V675H2454.8V636.775H2477.3Z" fill="black"/>
<path d="M2675.87 640.625V634.905H2687.31V675H2680.98V640.625H2675.87ZM2703.02 641.835V653.055H2716.22V658.17H2703.02V669.885H2717.87V675H2696.75V636.72H2717.87V641.835H2703.02ZM2723.94 640.625V634.905H2735.38V675H2729.05V640.625H2723.94ZM2751.09 641.835V653.055H2764.29V658.17H2751.09V669.885H2765.94V675H2744.82V636.72H2765.94V641.835H2751.09ZM2772.01 640.625V634.905H2783.45V675H2777.13V640.625H2772.01ZM2799.16 641.835V653.055H2812.36V658.17H2799.16V669.885H2814.01V675H2792.89V636.72H2814.01V641.835H2799.16Z" fill="black"/>
</g>
<defs>
<filter id="filter0_d_45_45" x="0" y="0" width="3000" height="683.99" filterUnits="userSpaceOnUse" color-interpolation-filters="sRGB">
<feFlood flood-opacity="0" result="BackgroundImageFix"/>
<feColorMatrix in="SourceAlpha" type="matrix" values="0 0 0 0 0 0 0 0 0 0 0 0 0 0 0 0 0 0 127 0" result="hardAlpha"/>
<feOffset dy="4"/>
<feGaussianBlur stdDeviation="2"/>
<feComposite in2="hardAlpha" operator="out"/>
<feColorMatrix type="matrix" values="0 0 0 0 0 0 0 0 0 0 0 0 0 0 0 0 0 0 0.25 0"/>
<feBlend mode="normal" in2="BackgroundImageFix" result="effect1_dropShadow_45_45"/>
<feBlend mode="normal" in="SourceGraphic" in2="effect1_dropShadow_45_45" result="shape"/>
</filter>
</defs>
</svg>
