<svg version="1.2" xmlns="http://www.w3.org/2000/svg" viewBox="0 0 410 264" width="410" height="264">
	<title>font 1-svg</title>
	<style>
		.s0 { fill: #000000 } 
	</style>
	<path id="Layer" fill-rule="evenodd" class="s0" d="m57.8 61.8q0 5.6-2.7 10.5-2.6 4.9-8.3 7.9-5.6 3-14.2 3h-11.7v26.8h-14v-69.8h25.7q8.1 0 13.8 2.8 5.7 2.8 8.5 7.7 2.9 4.9 2.9 11.1zm-25.8 10.1q5.8 0 8.6-2.6 2.8-2.7 2.8-7.5 0-10.2-11.4-10.2h-11.1v20.3zm60.3 39q-8 0-14.4-3.5-6.4-3.6-10.1-10.1-3.6-6.5-3.6-15 0-8.5 3.7-15 3.8-6.5 10.3-10 6.5-3.6 14.5-3.6 8 0 14.5 3.6 6.5 3.5 10.2 10 3.8 6.5 3.8 15 0 8.5-3.9 15-3.8 6.5-10.4 10.1-6.5 3.5-14.6 3.5zm0-12.2q3.8 0 7.1-1.8 3.4-1.9 5.4-5.6 2-3.7 2-9 0-7.9-4.2-12.1-4.1-4.3-10.1-4.3-6 0-10.1 4.3-4 4.2-4 12.1 0 7.9 3.9 12.2 4 4.2 10 4.2zm53.2-36.1q2.7-3.8 7.4-6.3 4.8-2.6 10.9-2.6 7.1 0 12.8 3.5 5.8 3.5 9.1 10 3.4 6.4 3.4 14.9 0 8.5-3.4 15.1-3.3 6.5-9.1 10.1-5.7 3.6-12.8 3.6-6.1 0-10.8-2.5-4.6-2.5-7.5-6.3v34.3h-14v-81.8h14zm29.3 19.5q0-5-2.1-8.6-2-3.7-5.4-5.6-3.3-1.9-7.2-1.9-3.8 0-7.2 2-3.3 1.9-5.4 5.6-2 3.7-2 8.7 0 5 2 8.7 2.1 3.7 5.4 5.7 3.4 1.9 7.2 1.9 3.9 0 7.2-2 3.4-2 5.4-5.7 2.1-3.7 2.1-8.8zm38.5-19.5q2.7-3.8 7.4-6.3 4.8-2.6 10.9-2.6 7.1 0 12.8 3.5 5.8 3.5 9.1 10 3.4 6.4 3.4 14.9 0 8.5-3.4 15.1-3.3 6.5-9.1 10.1-5.7 3.6-12.8 3.6-6.1 0-10.8-2.5-4.6-2.5-7.5-6.3v34.3h-14v-81.8h14zm29.3 19.5q0-5-2.1-8.6-2-3.7-5.4-5.6-3.3-1.9-7.2-1.9-3.8 0-7.2 2-3.3 1.9-5.4 5.6-2 3.7-2 8.7 0 5 2 8.7 2.1 3.7 5.4 5.7 3.4 1.9 7.2 1.9 3.9 0 7.2-2 3.4-2 5.4-5.7 2.1-3.7 2.1-8.8zm31.6-34.1q-3.7 0-6.2-2.3-2.4-2.4-2.4-5.9 0-3.5 2.4-5.8 2.5-2.4 6.2-2.4 3.7 0 6.1 2.4 2.5 2.3 2.5 5.8 0 3.5-2.5 5.9-2.4 2.3-6.1 2.3zm6.9 6.6v55.4h-14v-55.4zm44.5-0.8q9.9 0 16 6.3 6.1 6.2 6.1 17.4v32.5h-14v-30.6q0-6.6-3.3-10.1-3.3-3.6-9-3.6-5.8 0-9.2 3.6-3.3 3.5-3.3 10.1v30.6h-14v-55.4h14v6.9q2.8-3.6 7.1-5.6 4.4-2.1 9.6-2.1zm56.6 57.1q-6.8 0-12.2-2.4-5.4-2.5-8.6-6.7-3.1-4.2-3.4-9.3h14.1q0.4 3.2 3.1 5.3 2.8 2.1 6.9 2.1 4 0 6.2-1.6 2.3-1.6 2.3-4.1 0-2.7-2.8-4-2.7-1.4-8.7-3-6.2-1.5-10.2-3.1-3.9-1.6-6.8-4.9-2.8-3.3-2.8-8.9 0-4.6 2.6-8.4 2.7-3.8 7.6-6 5-2.2 11.7-2.2 9.9 0 15.8 5 5.9 4.9 6.5 13.3h-13.4q-0.3-3.3-2.8-5.2-2.4-2-6.5-2-3.8 0-5.9 1.4-2 1.4-2 3.9 0 2.8 2.8 4.3 2.8 1.4 8.7 2.9 6 1.5 9.9 3.1 3.9 1.6 6.7 5 2.9 3.3 3 8.8 0 4.8-2.7 8.6-2.6 3.8-7.6 6-4.9 2.1-11.5 2.1z"/>
	<path id="Layer" class="s0" d="m9 165.9v0.4h-4.1v13.7h-0.4v-13.7h-4.1v-0.4zm6.7 3.1q1.9 0 3.2 1.1 1.2 1.2 1.2 3.6v6.3h-0.4v-6.3q0-2.2-1.1-3.3-1-1.1-2.9-1.1-1.9 0-3 1.3-1.2 1.2-1.2 3.7v5.7h-0.4v-14.8h0.4v6.8q0.4-1.5 1.5-2.2 1.2-0.8 2.7-0.8zm7.9-2.6q-0.2 0-0.4-0.1-0.1-0.2-0.1-0.4 0-0.2 0.1-0.4 0.2-0.1 0.4-0.1 0.2 0 0.3 0.1 0.2 0.2 0.2 0.4 0 0.2-0.2 0.4-0.1 0.1-0.3 0.1zm0.2 2.8v10.8h-0.4v-10.8zm8-0.2q1.9 0 3.1 1.1 1.3 1.2 1.3 3.6v6.3h-0.4v-6.3q0-2.2-1.1-3.3-1-1.1-2.9-1.1-1.9 0-3.1 1.3-1.1 1.2-1.1 3.7v5.7h-0.4v-10.8h0.4v2.8q0.4-1.5 1.5-2.2 1.1-0.8 2.7-0.8z"/>
	<path id="Layer" fill-rule="evenodd" class="s0" d="m2.5 204.7v5.9h5.6v0.7h-5.6v5.9h6.2v0.8h-7.1v-14h7.1v0.7zm14.7 13.3l-3.1-4.8-3 4.8h-0.9l3.5-5.5-3.5-5.4h1l3.1 4.7 2.9-4.7h1l-3.5 5.4 3.5 5.5zm4.4-10.1v7.2q0 1.2 0.4 1.7 0.5 0.4 1.6 0.4h1.2v0.8h-1.3q-1.5 0-2.1-0.7-0.7-0.6-0.7-2.2v-7.2h-1.6v-0.8h1.6v-2.7h0.9v2.7h3.2v0.8zm6.5 1.5q0.4-1.2 1.4-1.8 1-0.7 2.6-0.7v1h-0.3q-1.6 0-2.6 0.9-1.1 0.9-1.1 2.9v6.3h-0.9v-10.9h0.9zm5.5 3.2q0-1.7 0.7-2.9 0.7-1.3 1.9-2 1.2-0.6 2.7-0.6 1.7 0 2.9 0.8 1.2 0.8 1.7 2.1v-2.8h0.9v10.9h-0.9v-2.9q-0.5 1.3-1.7 2.2-1.2 0.8-2.9 0.8-1.5 0-2.7-0.7-1.2-0.7-1.9-1.9-0.7-1.3-0.7-3zm9.9 0q0-1.4-0.6-2.5-0.6-1.1-1.6-1.7-1-0.6-2.3-0.6-1.3 0-2.3 0.6-1 0.6-1.6 1.7-0.5 1-0.5 2.5 0 1.5 0.5 2.6 0.6 1.1 1.6 1.6 1 0.6 2.3 0.6 1.3 0 2.3-0.6 1-0.6 1.6-1.6 0.6-1.1 0.6-2.6zm10.7 4.7h5.2v0.8h-6.1v-14.1h0.9zm7.7-12.5q-0.3 0-0.5-0.2-0.2-0.2-0.2-0.6 0-0.3 0.2-0.5 0.2-0.3 0.5-0.3 0.3 0 0.6 0.3 0.2 0.2 0.2 0.5 0 0.4-0.2 0.6-0.3 0.2-0.6 0.2zm0.5 2.4v10.9h-0.9v-10.9zm7.9-0.1q1.8 0 3 0.8 1.2 0.8 1.6 2.1v-2.8h0.9v11.2q0 1.5-0.6 2.6-0.7 1.2-1.8 1.8-1.1 0.6-2.5 0.6-2 0-3.4-1-1.3-1-1.7-2.6h0.9q0.4 1.3 1.5 2 1.1 0.8 2.7 0.8 1.1 0 2.1-0.5 0.9-0.5 1.4-1.5 0.5-0.9 0.5-2.2v-3.2q-0.4 1.3-1.7 2.2-1.2 0.8-2.9 0.8-1.5 0-2.7-0.6-1.2-0.7-1.8-2-0.7-1.3-0.7-3 0-1.6 0.7-2.9 0.6-1.3 1.8-1.9 1.2-0.7 2.7-0.7zm4.6 5.5q0-1.4-0.6-2.5-0.5-1.1-1.6-1.6-1-0.6-2.2-0.6-1.4 0-2.4 0.5-1 0.6-1.5 1.7-0.6 1.1-0.6 2.5 0 1.5 0.6 2.6 0.5 1.1 1.5 1.7 1.1 0.5 2.4 0.5 1.2 0 2.2-0.5 1.1-0.6 1.7-1.7 0.5-1.1 0.5-2.6zm9.1-5.6q2 0 3.2 1.2 1.2 1.2 1.2 3.5v6.4h-0.9v-6.3q0-2-1-3-0.9-1-2.6-1-1.8 0-2.8 1.1-1.1 1.1-1.1 3.3v5.9h-0.9v-14.8h0.9v6.2q0.5-1.2 1.6-1.8 1-0.7 2.4-0.7zm8.9 1v7.2q0 1.2 0.5 1.6 0.4 0.5 1.5 0.5h1.2v0.8h-1.3q-1.4 0-2.1-0.7-0.7-0.7-0.7-2.2v-7.2h-1.6v-0.8h1.6v-2.7h0.9v2.7h3.2v0.8z"/>
	<path id="Layer" fill-rule="evenodd" class="s0" d="m3 254.9h5v1.1h-6.4v-14h1.4zm7.7-11.8q-0.4 0-0.7-0.3-0.3-0.3-0.3-0.8 0-0.4 0.3-0.7 0.3-0.3 0.7-0.3 0.4 0 0.7 0.3 0.3 0.3 0.3 0.7 0 0.5-0.3 0.8-0.3 0.3-0.7 0.3zm0.7 2v11h-1.4v-11zm7.8-0.1q1.5 0 2.6 0.7 1.2 0.7 1.7 1.8v-2.4h1.4v11.2q0 1.5-0.7 2.7-0.6 1.2-1.8 1.8-1.1 0.6-2.6 0.6-2.1 0-3.5-1-1.4-1-1.7-2.7h1.3q0.4 1.1 1.4 1.8 1 0.7 2.5 0.7 1 0 1.9-0.5 0.8-0.4 1.3-1.3 0.5-0.9 0.5-2.1v-2.7q-0.5 1.2-1.7 1.9-1.1 0.7-2.6 0.7-1.5 0-2.7-0.7-1.2-0.7-1.9-2-0.7-1.2-0.7-2.9 0-1.7 0.7-3 0.7-1.2 1.9-1.9 1.2-0.7 2.7-0.7zm4.3 5.6q0-1.3-0.6-2.3-0.5-1-1.4-1.6-1-0.5-2.1-0.5-1.1 0-2.1 0.5-0.9 0.5-1.4 1.5-0.5 1-0.5 2.4 0 1.3 0.5 2.3 0.5 1 1.4 1.6 1 0.5 2.1 0.5 1.1 0 2.1-0.5 0.9-0.6 1.4-1.6 0.6-1 0.6-2.3zm9.8-5.7q1.2 0 2.2 0.6 1 0.5 1.6 1.6 0.5 1 0.5 2.6v6.4h-1.3v-6.3q0-1.8-0.9-2.7-0.9-0.9-2.5-0.9-1.5 0-2.5 1-0.9 1-0.9 2.9v6h-1.4v-14.8h1.4v5.7q0.5-1 1.5-1.5 1-0.6 2.3-0.6zm9.3 1.4v6.8q0 1 0.3 1.4 0.4 0.4 1.4 0.4h1.3v1.2h-1.5q-1.5 0-2.2-0.7-0.8-0.7-0.8-2.3v-6.8h-1.5v-1.2h1.5v-2.7h1.5v2.7h3v1.2z"/>
	<path id="Layer" fill-rule="evenodd" class="s0" d="m175.5 180l-3.3-5.7h-2.2v5.7h-1.8v-13.9h4.5q1.5 0 2.6 0.5 1.1 0.5 1.7 1.5 0.5 0.9 0.5 2.1 0 1.4-0.8 2.5-0.9 1.1-2.5 1.5l3.5 5.8zm-5.5-7.2h2.6q1.5 0 2.3-0.7 0.7-0.7 0.7-1.9 0-1.3-0.7-2-0.8-0.6-2.3-0.6h-2.6zm20.3 1.2q0 0.5-0.1 1.1h-8.7q0.1 1.6 1.1 2.6 1 0.9 2.4 0.9 1.2 0 2-0.6 0.8-0.5 1.1-1.5h2q-0.5 1.6-1.8 2.6-1.3 1-3.3 1-1.5 0-2.8-0.7-1.2-0.7-1.9-2-0.7-1.3-0.7-3 0-1.7 0.7-3 0.7-1.2 1.9-1.9 1.2-0.7 2.8-0.7 1.6 0 2.8 0.7 1.2 0.6 1.8 1.8 0.7 1.2 0.7 2.7zm-1.9-0.4q0-1-0.4-1.7-0.5-0.8-1.3-1.2-0.8-0.4-1.7-0.4-1.4 0-2.4 0.9-1 0.9-1.1 2.4zm8.8-4.8q1.4 0 2.5 0.6 1.1 0.6 1.6 1.6v-2h1.8v11.2q0 1.5-0.6 2.6-0.7 1.2-1.9 1.9-1.1 0.6-2.7 0.6-2.2 0-3.6-1-1.5-1-1.7-2.8h1.8q0.3 1 1.2 1.6 1 0.6 2.3 0.6 1.5 0 2.4-0.9 1-0.9 1-2.6v-2.3q-0.6 0.9-1.6 1.6-1.1 0.6-2.5 0.6-1.5 0-2.7-0.7-1.1-0.7-1.8-2-0.7-1.3-0.7-3 0-1.7 0.7-2.9 0.7-1.3 1.8-2 1.2-0.7 2.7-0.7zm4.1 5.6q0-1.2-0.5-2.1-0.5-1-1.4-1.4-0.8-0.5-1.8-0.5-1.1 0-1.9 0.4-0.8 0.5-1.3 1.4-0.5 1-0.5 2.2 0 1.3 0.5 2.2 0.5 0.9 1.3 1.4 0.8 0.5 1.9 0.5 1 0 1.8-0.5 0.9-0.5 1.4-1.4 0.5-0.9 0.5-2.2zm14.6-5.4v10.9h-1.8v-1.6q-0.5 0.8-1.5 1.3-0.9 0.5-2 0.5-1.3 0-2.3-0.5-1-0.6-1.6-1.6-0.6-1.1-0.6-2.6v-6.4h1.8v6.1q0 1.7 0.8 2.5 0.8 0.9 2.3 0.9 1.4 0 2.3-0.9 0.8-0.9 0.8-2.6v-6zm4.9-3.9v14.8h-1.8v-14.8zm2.4 9.3q0-1.7 0.7-2.9 0.7-1.3 1.8-2 1.2-0.7 2.7-0.7 1.4 0 2.5 0.6 1.1 0.6 1.6 1.6v-2h1.8v10.9h-1.8v-2q-0.6 0.9-1.6 1.6-1.1 0.6-2.5 0.6-1.5 0-2.7-0.7-1.1-0.7-1.8-2-0.7-1.3-0.7-3zm9.3 0q0-1.2-0.5-2.1-0.5-1-1.4-1.4-0.8-0.5-1.8-0.5-1.1 0-1.9 0.4-0.8 0.5-1.3 1.4-0.5 1-0.5 2.2 0 1.3 0.5 2.2 0.5 0.9 1.3 1.4 0.8 0.5 1.9 0.5 1 0 1.8-0.5 0.9-0.5 1.4-1.4 0.5-0.9 0.5-2.2zm6.7-3.7q0.5-0.9 1.4-1.4 0.9-0.5 2.1-0.5v1.8h-0.4q-3.1 0-3.1 3.4v5.9h-1.8v-10.9h1.8z"/>
	<path id="Layer" fill-rule="evenodd" class="s0" d="m179.9 204.1v13.9h-2.3v-9.5l-4.3 9.5h-1.5l-4.3-9.5v9.5h-2.3v-13.9h2.5l4.9 10.9 4.8-10.9zm13.1 8.1q0 0.6-0.1 1.1h-8.4q0.1 1.4 1 2.2 0.9 0.8 2.1 0.8 1.9 0 2.6-1.6h2.5q-0.5 1.5-1.8 2.5-1.3 1-3.3 1-1.5 0-2.8-0.7-1.2-0.7-2-2-0.7-1.3-0.7-3 0-1.7 0.7-3 0.7-1.3 2-2 1.2-0.7 2.8-0.7 1.6 0 2.8 0.7 1.2 0.7 1.9 1.9 0.7 1.2 0.7 2.8zm-2.4-0.7q0-1.3-0.9-2-0.9-0.8-2.2-0.8-1.1 0-2 0.8-0.8 0.7-1 2zm3.9 0.9q0-1.6 0.7-2.9 0.7-1.3 1.9-2 1.2-0.7 2.6-0.7 1.1 0 2.1 0.5 1.1 0.4 1.7 1.2v-5.3h2.3v14.8h-2.3v-1.7q-0.5 0.8-1.5 1.4-1 0.5-2.3 0.5-1.4 0-2.6-0.7-1.2-0.8-1.9-2.1-0.7-1.3-0.7-3zm9 0.1q0-1.2-0.5-2-0.4-0.8-1.2-1.3-0.7-0.4-1.6-0.4-0.9 0-1.7 0.4-0.7 0.4-1.2 1.3-0.5 0.8-0.5 1.9 0 1.2 0.5 2 0.5 0.9 1.2 1.4 0.8 0.4 1.7 0.4 0.9 0 1.6-0.4 0.8-0.5 1.2-1.3 0.5-0.9 0.5-2zm6.5-7q-0.7 0-1.1-0.4-0.4-0.4-0.4-1 0-0.7 0.4-1.1 0.4-0.4 1.1-0.4 0.6 0 1 0.4 0.4 0.4 0.4 1.1 0 0.6-0.4 1-0.4 0.4-1 0.4zm1.1 1.5v11h-2.3v-11zm13 0v11h-2.3v-1.3q-0.5 0.7-1.4 1.1-0.9 0.4-1.9 0.4-1.3 0-2.3-0.6-1-0.5-1.6-1.6-0.6-1-0.6-2.5v-6.5h2.3v6.1q0 1.5 0.7 2.3 0.7 0.8 2 0.8 1.3 0 2-0.8 0.8-0.8 0.8-2.3v-6.1zm16.3-0.2q1.3 0 2.4 0.5 1 0.6 1.6 1.6 0.6 1.1 0.6 2.6v6.5h-2.3v-6.2q0-1.4-0.7-2.2-0.8-0.8-2-0.8-1.3 0-2.1 0.8-0.7 0.8-0.7 2.2v6.2h-2.3v-6.2q0-1.4-0.7-2.2-0.8-0.8-2-0.8-1.3 0-2.1 0.8-0.7 0.8-0.7 2.2v6.2h-2.3v-11h2.3v1.2q0.5-0.6 1.4-1 0.9-0.4 1.8-0.4 1.4 0 2.4 0.6 1 0.5 1.6 1.6 0.5-1 1.6-1.6 1-0.6 2.2-0.6z"/>
	<path id="Layer" fill-rule="evenodd" class="s0" d="m160.9 256.1q-1.4 0-2.6-0.5-1.2-0.5-1.9-1.4-0.6-0.9-0.7-2.2h3q0.1 0.8 0.6 1.3 0.6 0.5 1.6 0.5 0.9 0 1.5-0.4 0.6-0.5 0.6-1.3 0-0.6-0.4-1-0.4-0.4-1-0.6-0.5-0.2-1.5-0.5-1.4-0.4-2.3-0.8-0.8-0.4-1.4-1.2-0.6-0.8-0.6-2.1 0-1.2 0.6-2.2 0.6-0.9 1.7-1.4 1.2-0.5 2.6-0.5 2.2 0 3.5 1.1 1.4 1 1.5 2.9h-3.1q0-0.7-0.6-1.2-0.6-0.4-1.5-0.4-0.8 0-1.3 0.4-0.5 0.4-0.5 1.2 0 0.6 0.4 0.9 0.3 0.4 0.9 0.6 0.5 0.3 1.5 0.6 1.4 0.4 2.3 0.8 0.8 0.4 1.4 1.2 0.7 0.8 0.7 2.1 0 1.1-0.6 2-0.6 1-1.7 1.6-1.1 0.5-2.7 0.5zm17.7-5.9q0 0.6-0.1 1.1h-8.1q0.1 1.2 0.9 1.9 0.7 0.7 1.8 0.7 1.5 0 2.2-1.4h3q-0.5 1.6-1.8 2.7-1.4 1-3.4 1-1.6 0-2.8-0.7-1.3-0.7-2-2-0.7-1.3-0.7-3 0-1.8 0.7-3.1 0.7-1.3 1.9-2 1.3-0.7 2.9-0.7 1.6 0 2.9 0.7 1.2 0.7 1.9 2 0.7 1.2 0.7 2.8zm-2.9-0.8q0-1.1-0.8-1.7-0.7-0.7-1.8-0.7-1.1 0-1.8 0.7-0.7 0.6-0.9 1.7zm18.7-4.6q2.1 0 3.3 1.2 1.3 1.3 1.3 3.5v6.5h-2.8v-6.1q0-1.3-0.7-2-0.6-0.7-1.8-0.7-1.1 0-1.8 0.7-0.7 0.7-0.7 2v6.1h-2.8v-6.1q0-1.3-0.6-2-0.7-0.7-1.8-0.7-1.2 0-1.9 0.7-0.6 0.7-0.6 2v6.1h-2.8v-11.1h2.8v1.4q0.5-0.7 1.4-1.1 0.8-0.4 1.8-0.4 1.3 0 2.4 0.5 1 0.6 1.5 1.6 0.6-1 1.6-1.6 1-0.5 2.2-0.5zm8.7-1.2q-0.8 0-1.3-0.5-0.5-0.4-0.5-1.1 0-0.7 0.5-1.2 0.5-0.5 1.3-0.5 0.7 0 1.2 0.5 0.5 0.5 0.5 1.2 0 0.7-0.5 1.1-0.5 0.5-1.2 0.5zm1.3 1.3v11.1h-2.8v-11.1zm15.5 3.9q1.2 0.3 1.9 1.2 0.8 1 0.8 2.2 0 1.1-0.6 2-0.5 0.8-1.6 1.3-1 0.5-2.4 0.5h-6v-14h5.7q1.4 0 2.5 0.5 1 0.5 1.5 1.3 0.6 0.8 0.6 1.8 0 1.3-0.7 2.1-0.6 0.8-1.7 1.1zm-5.1-1h2.5q1 0 1.6-0.4 0.5-0.5 0.5-1.3 0-0.9-0.5-1.3-0.6-0.5-1.6-0.5h-2.5zm2.8 5.9q1 0 1.6-0.5 0.5-0.4 0.5-1.3 0-0.9-0.6-1.4-0.6-0.5-1.6-0.5h-2.7v3.7zm12.1 2.5q-1.6 0-2.9-0.7-1.2-0.7-2-2-0.7-1.3-0.7-3 0-1.7 0.7-3 0.8-1.3 2.1-2 1.3-0.8 2.9-0.8 1.6 0 2.9 0.8 1.3 0.7 2 2 0.8 1.3 0.8 3 0 1.7-0.8 3-0.7 1.3-2.1 2-1.3 0.7-2.9 0.7zm0-2.5q0.8 0 1.4-0.3 0.7-0.4 1.1-1.1 0.4-0.8 0.4-1.8 0-1.6-0.8-2.5-0.8-0.8-2-0.8-1.2 0-2.1 0.8-0.8 0.9-0.8 2.5 0 1.5 0.8 2.4 0.8 0.8 2 0.8zm10.7-12.5v14.8h-2.8v-14.8zm2 9.2q0-1.7 0.7-3 0.6-1.3 1.8-2 1.2-0.7 2.6-0.7 1.1 0 2 0.5 1 0.5 1.6 1.3v-5.3h2.8v14.8h-2.8v-1.6q-0.5 0.8-1.5 1.3-0.9 0.5-2.1 0.5-1.4 0-2.6-0.7-1.2-0.8-1.8-2.1-0.7-1.3-0.7-3zm8.7 0.1q0-1.1-0.4-1.8-0.4-0.7-1.1-1.1-0.6-0.4-1.4-0.4-0.8 0-1.5 0.4-0.6 0.4-1 1.1-0.4 0.7-0.4 1.7 0 1 0.4 1.8 0.4 0.7 1 1.1 0.7 0.4 1.5 0.4 0.8 0 1.4-0.4 0.7-0.4 1.1-1.1 0.4-0.7 0.4-1.7z"/>
	<path id="Layer" fill-rule="evenodd" class="s0" d="m373.3 172.8q1.3 0.3 2 1.2 0.7 1 0.7 2.2 0 1.7-1.2 2.8-1.2 1-3.4 1h-6.6v-14h6.4q2.1 0 3.3 0.9 1.2 1 1.2 2.7 0 1.2-0.6 2.1-0.7 0.8-1.8 1.1zm-5-1.2h2.2q0.8 0 1.3-0.3 0.4-0.4 0.4-1.1 0-0.7-0.4-1.1-0.5-0.4-1.3-0.4h-2.2zm2.5 5.6q0.9 0 1.3-0.4 0.5-0.4 0.5-1.1 0-0.8-0.5-1.2-0.5-0.4-1.4-0.4h-2.4v3.1zm12.3 2.9q-1.6 0-3-0.7-1.3-0.7-2-2-0.8-1.3-0.8-3 0-1.7 0.8-3 0.8-1.4 2.1-2.1 1.3-0.7 2.9-0.7 1.7 0 3 0.7 1.3 0.7 2.1 2.1 0.7 1.3 0.7 3 0 1.7-0.7 3-0.8 1.3-2.1 2-1.4 0.7-3 0.7zm0-2.9q1 0 1.7-0.8 0.7-0.7 0.7-2 0-1.4-0.7-2.1-0.7-0.7-1.7-0.7-1 0-1.6 0.7-0.7 0.7-0.7 2.1 0 1.3 0.7 2 0.6 0.8 1.6 0.8zm11.1-12v14.8h-3.5v-14.8zm1.8 9.2q0-1.8 0.7-3.1 0.6-1.3 1.8-2 1.1-0.7 2.5-0.7 1.1 0 2 0.5 0.9 0.5 1.4 1.2v-5.1h3.4v14.8h-3.4v-1.6q-0.5 0.8-1.4 1.2-0.9 0.5-2 0.5-1.4 0-2.5-0.7-1.2-0.7-1.8-2-0.7-1.3-0.7-3zm8.4 0q0-1.3-0.7-2-0.7-0.8-1.7-0.8-1.1 0-1.8 0.8-0.7 0.7-0.7 2 0 1.2 0.7 2 0.7 0.7 1.8 0.7 1 0 1.7-0.7 0.7-0.7 0.7-2z"/>
	<path id="Layer" fill-rule="evenodd" class="s0" d="m309.9 207v2.3h4.5v3h-4.5v2.6h5.1v3.1h-9.1v-14.1h9.1v3.1zm14 11l-2-2.8-1.6 2.8h-4.3l3.7-5.8-3.9-5.4h4.4l2 2.8 1.7-2.8h4.3l-3.9 5.7 4 5.5zm12.2-3.3v3.3h-1.7q-4.3 0-4.3-4.3v-3.7h-1.4v-3.2h1.4v-2.7h3.9v2.7h2.1v3.2h-2.1v3.8q0 0.5 0.2 0.7 0.2 0.2 0.7 0.2zm5.8-5.9q0.6-1 1.6-1.6 0.9-0.5 2-0.5v4.2h-1.1q-1.3 0-1.9 0.5-0.6 0.5-0.6 1.7v4.9h-4v-11.2h4zm4.3 3.6q0-1.7 0.7-3 0.6-1.3 1.7-2 1.1-0.7 2.4-0.7 1.2 0 2 0.4 0.9 0.5 1.3 1.3v-1.6h3.9v11.2h-3.9v-1.5q-0.4 0.7-1.3 1.2-0.8 0.5-2 0.5-1.3 0-2.4-0.7-1.1-0.7-1.7-2-0.7-1.4-0.7-3.1zm8.1 0q0-1.1-0.6-1.7-0.6-0.6-1.4-0.6-0.9 0-1.5 0.6-0.6 0.6-0.6 1.7 0 1.1 0.6 1.7 0.6 0.6 1.5 0.6 0.8 0 1.4-0.6 0.6-0.6 0.6-1.7zm19-1.6q1.2 0.3 2 1.2 0.7 1 0.7 2.2 0 1.8-1.2 2.8-1.3 1-3.5 1h-7v-14.1h6.8q2.1 0 3.3 1 1.3 0.9 1.3 2.7 0 1.2-0.7 2.1-0.6 0.8-1.7 1.1zm-5.1-1.3h2q1.5 0 1.5-1.2 0-1.3-1.5-1.3h-2zm2.3 5.4q1.5 0 1.5-1.3 0-0.6-0.4-0.9-0.4-0.4-1.1-0.4h-2.3v2.6zm12.5 3.3q-1.7 0-3.1-0.7-1.3-0.7-2-2-0.8-1.3-0.8-3.1 0-1.7 0.8-3 0.7-1.3 2.1-2 1.3-0.7 3-0.7 1.7 0 3 0.7 1.3 0.7 2.1 2 0.8 1.3 0.8 3 0 1.8-0.8 3.1-0.8 1.3-2.1 2-1.4 0.7-3 0.7zm0-3.4q0.8 0 1.3-0.6 0.6-0.6 0.6-1.8 0-1.1-0.6-1.7-0.5-0.6-1.3-0.6-0.8 0-1.4 0.6-0.5 0.6-0.5 1.7 0 1.2 0.5 1.8 0.5 0.6 1.4 0.6zm11.4-11.6v14.8h-3.9v-14.8zm1.5 9.2q0-1.7 0.7-3 0.6-1.3 1.7-2 1.1-0.7 2.4-0.7 1.1 0 2 0.4 0.8 0.5 1.3 1.3v-5.2h3.9v14.8h-3.9v-1.5q-0.5 0.8-1.3 1.2-0.8 0.5-2 0.5-1.3 0-2.4-0.7-1.1-0.7-1.7-2-0.7-1.3-0.7-3.1zm8.1 0q0-1.1-0.6-1.7-0.6-0.6-1.4-0.6-0.9 0-1.5 0.6-0.6 0.6-0.6 1.7 0 1.1 0.6 1.7 0.6 0.7 1.5 0.7 0.8 0 1.4-0.7 0.6-0.6 0.6-1.7z"/>
	<path id="Layer" fill-rule="evenodd" class="s0" d="m360.1 248.7q1.2 0.3 1.9 1.3 0.8 0.9 0.8 2.1 0 1.9-1.3 2.9-1.2 1-3.5 1h-7.4v-14.2h7.2q2.2 0 3.4 1 1.2 0.9 1.2 2.7 0 1.3-0.6 2.1-0.7 0.9-1.7 1.1zm-5.1-1.3h1.7q0.6 0 0.9-0.3 0.3-0.2 0.3-0.7 0-0.5-0.3-0.8-0.3-0.2-0.9-0.2h-1.7zm2 5q0.6 0 0.9-0.2 0.3-0.2 0.3-0.7 0-1.1-1.2-1.1h-2v2zm11.7-11.2v14.8h-4.5v-14.8zm1.4 9.2q0-1.8 0.6-3.1 0.7-1.3 1.7-2 1.1-0.7 2.4-0.7 1.1 0 1.9 0.4 0.8 0.5 1.2 1.3v-1.6h4.4v11.3h-4.4v-1.5q-0.4 0.7-1.2 1.2-0.8 0.4-1.9 0.4-1.3 0-2.4-0.6-1-0.7-1.7-2-0.6-1.4-0.6-3.1zm7.8 0q0-0.9-0.4-1.4-0.5-0.5-1.2-0.5-0.7 0-1.2 0.5-0.5 0.5-0.5 1.4 0 0.9 0.5 1.4 0.5 0.5 1.2 0.5 0.7 0 1.2-0.5 0.4-0.5 0.4-1.4zm5.8 0q0-1.8 0.8-3.1 0.7-1.3 2-2 1.3-0.7 3-0.7 2.2 0 3.7 1.2 1.5 1.3 1.9 3.5h-4.7q-0.2-0.9-1-0.9-0.5 0-0.9 0.5-0.3 0.5-0.3 1.5 0 0.9 0.3 1.4 0.4 0.5 0.9 0.5 0.8 0 1-0.8h4.7q-0.4 2.2-1.9 3.4-1.5 1.2-3.7 1.2-1.7 0-3-0.7-1.3-0.7-2-2-0.8-1.3-0.8-3zm20 5.6l-2.7-4.5v4.5h-4.5v-14.8h4.5v7.7l2.8-4.2h5.1l-4.2 5.7 4.3 5.6z"/>
</svg>