<?xml version="1.0" encoding="UTF-8"?>
<svg id="Layer_1" data-name="Layer 1" xmlns="http://www.w3.org/2000/svg" xmlns:xlink="http://www.w3.org/1999/xlink" viewBox="0 0 95 106.93">
  <defs>
    <linearGradient id="linear-gradient" x1="7.72" y1="-307.29" x2="102.72" y2="-414.21" gradientTransform="translate(0 -314.15) scale(1 -1)" gradientUnits="userSpaceOnUse">
      <stop offset="0" stop-color="#1c8cd0"/>
      <stop offset="1" stop-color="#3ac2d8"/>
    </linearGradient>
    <linearGradient id="linear-gradient-2" x1="-7.69" y1="-320.98" x2="87.31" y2="-427.9" gradientTransform="translate(0 -314.15) scale(1 -1)" gradientUnits="userSpaceOnUse">
      <stop offset="0" stop-color="#1c8cd0"/>
      <stop offset="1" stop-color="#3ac2d8"/>
    </linearGradient>
  </defs>
  <path d="m45.82.12c-.7.17-1.42.54-3.87,1.96-.64.38-1.18.68-1.21.68-.02,0-.64.34-1.36.76-.73.42-1.35.76-1.39.76-.06,0-.63.32-1.36.78-.19.12-.47.29-.63.38-1.25.7-3.73,2.08-4.27,2.38-.37.21-1.38.78-2.24,1.27-.86.49-1.93,1.08-2.37,1.33-.44.24-.91.5-1.03.58-.13.08-.5.3-.83.48-.33.18-.75.41-.94.52-1.07.61-3.77,2.13-4.54,2.55-.49.27-1.16.64-1.48.83-.7.41-1.15.65-1.77.99-.25.14-.63.36-.82.48s-.37.22-.39.22c-.04,0-1.69.93-6.06,3.4-1.51.85-2.93,1.65-3.18,1.78-2.82,1.54-3.78,2.14-4.39,2.74-.74.74-1.21,1.59-1.45,2.62-.15.64-.16,1.34-.15,9.84,0,6.5.04,9.25.11,9.54.05.22.13.52.16.67.04.14.21.55.39.9.45.88,1.35,1.76,2.38,2.35.96.53,3.76,2.17,4.99,2.91.48.29,1.07.63,1.3.75.24.13,1.15.66,2.03,1.19.88.52,1.7,1.01,1.84,1.08.46.24,3.43,1.98,5.33,3.11,1.02.61,1.87,1.1,1.9,1.1.02,0,.63.36,1.36.79.73.44,1.7,1.01,2.16,1.28.46.27,1.05.61,1.3.76.6.36,2.7,1.57,3.11,1.79.17.09.33.2.36.22s.43.26.9.52c.47.27,1.09.63,1.39.82.89.55,3.64,2.14,4.93,2.87.2.11.46.27.58.36.13.08.55.32.94.54.39.21,1.03.56,1.41.77.39.22,1.11.62,1.61.9,1.65.9,1.91,1.05,2,1.11.1.08.55.33,1.3.74.27.14.72.39.99.55,1.31.75,1.98.95,3.24.95s1.97-.24,3.93-1.41c1.14-.67,1.93-1.14,3.36-1.95.2-.12,1.15-.66,2.11-1.21.96-.56,1.89-1.09,2.07-1.19.67-.39.92-1.15.57-1.74-.14-.24-.48-.47-2.02-1.35-.17-.1-.88-.51-1.57-.92-.69-.4-1.76-1.03-2.37-1.38-.62-.35-1.83-1.06-2.69-1.57-1.67-.98-2.97-1.74-3.75-2.17-.26-.14-.76-.44-1.12-.65-.36-.22-1.31-.78-2.12-1.25-.82-.47-1.54-.9-1.61-.94-.07-.04-.73-.43-1.48-.86-.73-.43-1.7-.99-2.15-1.24-.44-.26-1.21-.7-1.7-.99-.49-.28-1.46-.84-2.15-1.25-.69-.4-1.42-.83-1.62-.95-.89-.51-2.51-1.46-3.76-2.19-.73-.44-1.94-1.15-2.69-1.57-.73-.43-1.55-.9-1.8-1.05-.44-.26-.84-.49-1.71-.98-.24-.13-.63-.37-.88-.53-.24-.15-1.03-.62-1.75-1.03-5.18-2.97-5.72-3.32-6.34-4.14-1.16-1.5-1.57-3.17-1.25-4.95.36-1.96,1.51-3.42,3.55-4.54.73-.4,4.4-2.51,5.29-3.05.37-.21.85-.5,1.08-.63,1.4-.8,3.92-2.23,4.03-2.31.16-.1,1.41-.82,1.97-1.15.22-.12.87-.49,1.43-.82,1.08-.63,4.39-2.54,4.93-2.85,1.59-.9,3.31-1.9,4.18-2.41.24-.15.63-.37.85-.49.22-.13.8-.46,1.29-.74,3.48-2.01,3.71-2.1,5.01-2.1.58,0,1.01.05,1.41.18.65.2,2.98,1.48,6.76,3.71,1.25.73,1.22.72,2.15,1.24.39.22,1.25.71,1.88,1.07,3.08,1.78,4.1,2.37,4.97,2.88.52.3,1.6.92,2.42,1.41.82.47,1.88,1.09,2.37,1.38.49.28,1.06.6,1.26.72.2.12.64.37.99.55.34.19.8.47,1.02.62.45.3.67.45.94.58.1.05.42.24.72.41.3.17.76.43,1.03.56.27.14.75.41,1.08.6.32.18.73.41.9.51.17.1.41.25.54.33.13.09.65.39,1.17.68.52.29,1.36.77,1.88,1.07.52.3,1.6.93,2.42,1.39.82.46,1.54.89,1.61.94.07.06.36.23.63.38.65.36,5.13,2.93,5.69,3.27,1.22.73,2.53,1.42,2.74,1.42.48,0,.89-.25,1.07-.65.17-.36.18-.65.18-5.75,0-5.8-.03-6.16-.48-7.29-.36-.89-1.33-2.01-2.09-2.43-.14-.08-.53-.3-.88-.5-.34-.21-.85-.49-1.12-.64-1.44-.79-2.67-1.51-2.9-1.71-.15-.12-.37-.25-.49-.3-.13-.04-.57-.28-.99-.51-.42-.24-.94-.54-1.17-.66-.22-.12-.66-.37-.99-.56-.32-.19-.74-.43-.94-.54-.2-.12-.96-.56-1.7-.99-.73-.43-1.52-.89-1.74-1.01-.22-.13-.6-.34-.83-.47-.24-.14-.47-.26-.49-.26s-.28-.15-.56-.34c-.28-.18-.62-.39-.77-.47-.14-.07-1.08-.59-2.06-1.16-.99-.56-2.5-1.42-3.36-1.92-.86-.48-1.6-.91-1.66-.96-.1-.08-1.85-1.07-1.89-1.07-.02,0-.22-.12-.47-.26-.23-.13-.61-.36-.83-.48-.22-.12-.99-.57-1.74-1-.73-.43-1.51-.87-1.7-.99-2.77-1.58-3.38-1.93-3.6-2.08-.13-.1-.45-.28-.7-.4-.39-.2-6.12-3.48-7.53-4.3-1.73-1.03-2.42-1.37-3.13-1.55-.61-.16-1.7-.16-2.36,0Z" style="fill: url(#linear-gradient);"/>
  <path d="m46.38,30.9c-.9.09-1.48.3-2.6.99-.3.18-.72.42-.94.55-.22.13-1.19.68-2.15,1.24-.96.56-1.89,1.09-2.06,1.19-.17.09-.54.3-.81.47-.27.16-.99.58-1.6.94-1.26.73-1.49.99-1.42,1.59.06.57.23.76,1.25,1.34.51.3,1.63.95,2.49,1.46.86.51,1.89,1.1,2.29,1.33.39.22.82.47.96.56.13.1.26.17.3.17.03,0,.29.14.56.33.56.35.88.54,1.63.95.27.14.58.32.69.39.22.14.29.18,2.18,1.27.76.44,1.83,1.07,2.37,1.4.54.32.99.59,1,.59s.34.18.72.4c.37.22.7.4.73.4.03,0,.12.05.19.13.08.07.4.27.73.44.32.17,1.06.59,1.64.95.58.35,1.08.64,1.11.64s.15.07.28.17c.13.09.42.26.65.39.43.24.71.39,1.57.9.3.18.94.55,1.43.83.49.28.94.54.99.58.05.04.49.3.99.58.49.29,1.02.58,1.17.67.15.09.9.52,1.66.96.76.44,1.9,1.11,2.54,1.49.63.38,1.16.69,1.18.69.02,0,.43.23.91.52.48.29,1.12.66,1.42.82.3.17,1.02.59,1.61.94.59.35,1.25.74,1.48.87.22.13.86.49,1.43.82.56.32,1.03.59,1.05.59s.25.14.52.31c.27.17.51.31.54.31s.33.18.68.4c.35.22.65.4.68.4.08,0,1.06.69,1.3.92.73.71,1.34,1.7,1.66,2.73.17.56.22.89.22,1.68,0,1.19-.22,2.07-.75,3.04-.4.73-1.61,1.99-2.16,2.26-.34.16-1.74.97-4.66,2.67-.69.4-1.84,1.07-2.55,1.48-.72.4-1.77,1.01-2.34,1.35-.57.34-1.08.62-1.11.62s-.17.07-.3.17c-.13.09-.39.25-.56.35-.17.1-.56.31-.85.48-1.09.64-2.31,1.33-2.33,1.33s-.29.16-.59.35c-.31.2-.77.47-1.02.6-.24.13-.51.29-.58.35-.07.06-.3.19-.49.29-.2.1-1.07.58-1.93,1.09-1.66.97-1.68.98-2.32,1.33-.22.13-.65.38-.95.56-.77.47-2.46,1.43-4.93,2.85-1.71.98-1.86,1.03-2.96,1.08-1.52.07-1.9-.07-4.79-1.75-.17-.1-.8-.47-1.39-.81-.59-.34-1.14-.65-1.21-.68-.07-.04-.3-.16-.49-.28-.7-.43-1.1-.67-3.85-2.25-1.52-.88-2.89-1.67-3.02-1.76-.13-.1-.27-.17-.3-.17s-.22-.1-.39-.22c-.18-.12-1.13-.66-2.12-1.22-.99-.56-2.18-1.24-2.64-1.52-.47-.29-1.03-.62-1.25-.74-1.08-.6-2.25-1.28-3.7-2.15-.88-.53-1.8-1.07-2.04-1.19-.59-.3-4.56-2.57-5.17-2.96-.26-.17-.49-.3-.53-.3-.03,0-.42-.21-.87-.48-.45-.27-.96-.56-1.13-.66-1.09-.62-2.78-1.59-3.35-1.93-.38-.22-.7-.41-.73-.41s-.3-.15-.61-.35c-.3-.19-1.3-.77-2.21-1.29-1.68-.95-1.82-1.03-2.75-1.59-.29-.17-.68-.39-.88-.5-.2-.1-.54-.3-.76-.42-.22-.13-.52-.24-.65-.24-.38,0-.95.33-1.06.61-.05.13-.13.31-.18.39-.11.21-.11,10.66,0,11.08.04.18.13.55.2.82.13.61.6,1.53,1.04,2.06.61.74,1.06,1.06,2.85,2.02.24.13.58.32.76.44.17.11.72.43,1.21.71.49.29,1.24.72,1.65.96.41.24.77.44.79.44s.18.09.37.21c.18.12.62.37.96.56.35.18.69.39.76.45.07.06.5.3.94.54.45.23,1.02.56,1.28.73.26.17.48.3.51.3.02,0,.23.12.48.26.23.13.61.35.83.47,2.81,1.59,3.64,2.08,3.76,2.18.07.06.58.36,1.12.65.55.3,1.39.77,1.88,1.05.49.29,1.04.59,1.21.69.17.1,1.11.64,2.09,1.21,1.77,1.01,2.06,1.18,2.83,1.62.22.13.61.34.85.49.6.36.91.53,1.64.92.33.18.91.53,1.27.76.37.24.7.44.74.44s.3.14.57.31c.27.17.51.31.53.31.03,0,.48.25,1.01.55.53.3,1.17.66,1.41.8.25.13.75.42,1.12.64.75.45,3.4,1.98,4.08,2.36.25.13.66.37.93.51.26.14.87.49,1.34.78,1.54.92,2.82,1.61,3.36,1.81.68.23,1.85.32,2.48.18.65-.14,1.35-.43,1.99-.79.3-.16.54-.3.56-.3s.35-.19.73-.41c.99-.6,1.24-.73,2.09-1.2.42-.23,1.38-.77,2.14-1.19.75-.43,1.38-.78,1.4-.78s.35-.19.73-.41c1.15-.68,3.34-1.93,4.03-2.28.61-.31.88-.47,2.76-1.56.45-.26,1.31-.75,1.93-1.09.62-.35,1.33-.74,1.57-.88.25-.13.71-.39,1.03-.56.32-.18.69-.39.82-.46.31-.19,1.13-.65,2.99-1.69.84-.47,2.09-1.18,2.78-1.57.69-.39,1.48-.84,1.75-.99.27-.15.65-.37.82-.48.19-.12.35-.21.38-.21.02,0,.43-.22.91-.5.49-.29,1.19-.67,1.56-.87s.91-.51,1.22-.69c.45-.29,3-1.71,5.14-2.89.27-.14.75-.42,1.08-.6.32-.19,1.25-.71,2.06-1.17,1.81-1.03,2.39-1.56,2.95-2.7.65-1.32.64-1.07.64-11.09,0-7.35-.02-9.02-.13-9.54-.43-2.13-1.11-2.91-3.96-4.56-.93-.54-2.32-1.35-3.08-1.81-.76-.45-1.53-.9-1.7-1-.17-.1-.62-.35-.99-.56-.37-.21-1.54-.9-2.6-1.52-1.06-.63-2.45-1.43-3.07-1.8s-1.68-.98-2.33-1.37c-1.46-.87-1.67-.99-2.39-1.4-.77-.44-2.07-1.18-2.25-1.3-.09-.04-.57-.33-1.08-.62-.51-.3-1.09-.64-1.29-.77-.2-.13-.94-.57-1.66-.99-.72-.41-1.54-.89-1.84-1.06-.3-.17-.62-.36-.72-.41-.1-.05-.91-.54-1.79-1.07-.89-.54-1.68-1-1.75-1.05-.23-.13-2.63-1.5-3-1.7-.2-.11-.46-.27-.58-.36-.19-.13-1.17-.68-3.41-1.91-.54-.3-2.83-1.59-4.03-2.26-.42-.24-1.03-.58-1.36-.77-1.22-.68-2.26-.9-3.61-.79Z" style="fill: url(#linear-gradient-2);"/>
</svg>